<svg width="28" height="28" viewBox="0 0 28 28" fill="none" xmlns="http://www.w3.org/2000/svg">
<path d="M17.436 4.375C18.9193 4.77396 20.2718 5.55567 21.358 6.64184C22.4442 7.72801 23.2259 9.08051 23.6249 10.5639" stroke="#1A1A1A" stroke-width="1.5" stroke-linecap="round" stroke-linejoin="round"/>
<path d="M16.5306 7.75696C17.4205 7.99635 18.2318 8.4653 18.8833 9.11687C19.5349 9.76844 20.0039 10.5798 20.2433 11.4696" stroke="#1A1A1A" stroke-width="1.5" stroke-linecap="round" stroke-linejoin="round"/>
<path d="M10.115 13.6518C11.0224 15.5075 12.5263 17.0049 14.3859 17.9043C14.522 17.9688 14.6727 17.9967 14.8229 17.9852C14.9731 17.9737 15.1178 17.9232 15.2425 17.8387L17.9812 16.0134C18.1022 15.9327 18.2414 15.8833 18.3862 15.8699C18.5311 15.8564 18.677 15.8793 18.8107 15.9364L23.9339 18.1327C24.1079 18.2066 24.2532 18.3351 24.3479 18.4987C24.4426 18.6624 24.4815 18.8523 24.4589 19.04C24.2967 20.307 23.6784 21.4715 22.7196 22.3154C21.7608 23.1594 20.5273 23.625 19.25 23.625C15.3049 23.625 11.5214 22.0579 8.73179 19.2683C5.94218 16.4787 4.375 12.6951 4.375 8.75004C4.37512 7.47283 4.84074 6.23946 5.68471 5.28082C6.52867 4.32218 7.6931 3.70401 8.96 3.54204C9.14771 3.51941 9.33769 3.55836 9.50134 3.65305C9.66499 3.74774 9.79345 3.89303 9.86738 4.06704L12.0654 9.19454C12.1219 9.32703 12.1449 9.47142 12.1322 9.6149C12.1195 9.75838 12.0716 9.89652 11.9928 10.017L10.1728 12.7978C10.0901 12.923 10.0414 13.0675 10.0313 13.2172C10.0212 13.3669 10.05 13.5166 10.115 13.6518V13.6518Z" stroke="#1A1A1A" stroke-width="1.5" stroke-linecap="round" stroke-linejoin="round"/>
</svg>
